<?xml version="1.0" standalone="no"?>
<!DOCTYPE svg PUBLIC "-//W3C//DTD SVG 20010904//EN"
 "http://www.w3.org/TR/2001/REC-SVG-20010904/DTD/svg10.dtd">
<svg version="1.0" xmlns="http://www.w3.org/2000/svg"
 width="500.000000pt" height="500.000000pt" viewBox="0 0 500.000000 500.000000"
 preserveAspectRatio="xMidYMid meet">
<metadata>
Created by potrace 1.11, written by Peter Selinger 2001-2013
</metadata>
<g transform="translate(0.000000,500.000000) scale(0.100000,-0.100000)"
fill="#000000" stroke="none">
<path d="M2249 4996 c-2 -2 -26 -6 -54 -9 -504 -54 -1008 -321 -1411 -748
-209 -222 -364 -494 -430 -754 -6 -22 -34 -182 -39 -220 -10 -83 -5 -332 9
-412 18 -99 54 -206 92 -270 26 -45 104 -129 169 -183 87 -73 267 -177 502
-291 81 -40 152 -77 156 -83 11 -16 0 -123 -18 -175 -34 -94 -76 -155 -163
-237 -58 -55 -96 -79 -262 -168 -58 -31 -130 -70 -160 -87 -30 -17 -89 -49
-130 -71 -171 -92 -264 -189 -321 -333 -31 -80 -34 -251 -5 -335 87 -251 383
-383 861 -382 86 0 115 5 149 28 33 21 30 25 -14 16 -131 -28 -355 51 -611
216 -159 103 -262 204 -296 291 -15 38 -15 44 1 85 16 41 22 46 59 54 23 5 59
7 80 5 66 -7 344 -87 912 -265 767 -239 1265 -402 1368 -448 53 -24 57 -38 32
-110 -8 -23 -15 -48 -15 -54 0 -15 37 -56 50 -56 7 0 122 90 140 109 3 4 39
35 80 71 41 36 88 77 105 92 83 73 458 399 505 438 29 25 58 50 64 55 6 6 81
69 166 140 215 179 425 391 593 596 64 79 192 282 242 384 88 181 140 350 170
545 13 89 15 477 2 535 -2 11 -8 47 -12 80 -8 61 -9 72 -20 135 -10 55 -44
188 -70 270 -174 558 -583 1030 -1125 1301 -172 85 -477 186 -621 204 -23 3
-44 7 -48 9 -3 2 -35 7 -71 11 -36 4 -74 9 -85 12 -24 6 -520 15 -526 9z m227
-77 c9 -15 -35 -59 -173 -170 -119 -95 -183 -129 -217 -116 -9 4 -16 12 -16
19 0 21 115 123 205 183 132 88 184 110 201 84z m-332 -18 c7 -10 -73 -104
-157 -185 -76 -72 -135 -101 -199 -97 -30 2 -21 19 50 89 136 137 284 230 306
193z m622 -3 c4 -6 -3 -20 -17 -31 -26 -21 -183 -157 -239 -207 -42 -38 -74
-55 -117 -63 -38 -8 -63 0 -63 18 0 18 96 103 197 175 149 107 220 139 239
108z m244 -28 c12 -7 11 -13 -10 -36 -65 -70 -110 -112 -151 -138 -24 -16 -69
-51 -99 -77 -120 -103 -205 -119 -163 -30 19 37 99 113 202 189 129 96 181
118 221 92z m208 -63 c6 -5 12 -15 12 -23 0 -19 -77 -91 -195 -183 -176 -138
-232 -159 -206 -78 15 44 65 96 171 177 171 131 181 136 218 107z m-1488 -16
c0 -11 -75 -97 -118 -135 -34 -30 -143 -86 -168 -86 -31 0 -11 36 56 101 87
84 230 159 230 120z m1695 -61 c18 -20 18 -21 -36 -73 -113 -110 -302 -237
-351 -237 -15 0 -28 4 -28 8 0 11 136 142 220 212 36 30 67 58 70 61 11 14 76
49 91 49 9 0 24 -9 34 -20z m180 -105 c0 -33 -30 -60 -241 -214 -124 -90 -160
-105 -183 -77 -16 19 16 57 76 91 27 16 86 66 133 113 94 93 140 123 185 119
26 -2 30 -6 30 -32z m182 -81 c12 -36 -335 -324 -388 -324 -10 0 -23 9 -29 19
-8 16 -3 27 33 63 113 113 319 260 356 256 14 -2 26 -8 28 -14z m148 -104 c22
-36 -261 -285 -366 -322 -29 -10 -48 -1 -49 23 0 23 161 160 298 253 83 56
105 65 117 46z m-1840 -105 c123 -15 150 -20 250 -41 39 -8 84 -18 100 -21 57
-10 290 -91 383 -132 318 -144 639 -391 827 -636 25 -33 51 -67 58 -75 47 -59
134 -205 180 -302 80 -167 160 -421 182 -573 3 -23 7 -50 9 -60 2 -11 7 -54
11 -95 4 -41 9 -88 11 -105 5 -48 5 -341 0 -367 -3 -13 -7 -49 -10 -81 -12
-120 -64 -283 -84 -262 -4 4 -5 50 -2 103 9 193 5 517 -8 612 -17 122 -47 259
-77 361 -48 158 -147 385 -207 471 -10 14 -18 28 -18 31 0 10 -84 133 -148
217 -339 442 -815 743 -1317 834 -16 3 -41 8 -54 11 -13 2 -49 7 -80 11 -31 3
-65 8 -76 11 -11 2 -96 5 -190 7 -151 3 -292 -8 -385 -29 -14 -3 -63 -12 -110
-20 -47 -9 -92 -17 -100 -20 -8 -2 -31 -7 -50 -10 -19 -3 -48 -8 -65 -11 -16
-3 -54 -11 -82 -19 -29 -7 -53 -10 -53 -6 0 16 58 61 118 91 62 31 243 82 337
95 78 10 120 17 123 20 10 9 434 1 527 -10z m1985 -31 c0 -22 -90 -106 -240
-223 -105 -82 -137 -102 -149 -94 -36 22 -23 48 61 129 180 170 272 233 309
213 10 -5 19 -16 19 -25z m138 -111 c7 -48 -330 -333 -394 -333 -36 0 -31 37
13 91 48 58 228 205 296 242 58 31 81 31 85 0z m-2275 -77 c59 -14 97 -32 97
-46 0 -33 -256 -170 -485 -261 -393 -155 -615 -272 -615 -323 0 -21 51 -29
100 -16 22 6 56 13 75 15 31 4 34 2 49 -35 8 -21 18 -49 20 -62 3 -13 8 -34
11 -48 3 -14 7 -38 10 -55 3 -16 10 -52 15 -80 14 -73 28 -191 35 -280 2 -27
7 -86 10 -130 35 -432 15 -525 -102 -490 -76 23 -152 76 -259 180 -204 200
-364 430 -408 586 -34 121 -38 386 -7 492 82 281 413 505 831 560 74 9 576 4
623 -7z m2400 -58 c14 -21 8 -29 -128 -147 -141 -124 -193 -165 -230 -183 -64
-32 -96 19 -46 76 9 10 50 44 91 75 41 31 112 88 158 128 67 57 90 71 114 70
17 -1 36 -9 41 -19z m-1798 -110 c169 -67 263 -113 371 -183 293 -190 529
-481 711 -875 95 -207 190 -513 217 -700 2 -19 8 -57 12 -85 3 -27 8 -59 10
-70 16 -88 23 -384 11 -495 -27 -253 -160 -545 -297 -654 -99 -79 -193 -83
-448 -20 -263 64 -830 248 -1072 346 -141 57 -280 109 -561 208 -164 58 -248
97 -256 117 -10 25 122 146 333 306 l102 76 123 21 c155 26 154 26 269 45 52
8 107 17 123 20 39 7 136 23 177 30 142 24 321 93 432 167 186 124 267 298
233 503 -9 58 -9 58 -54 89 -65 45 -71 37 -69 -106 1 -103 -2 -133 -20 -182
-53 -147 -171 -248 -388 -335 -175 -71 -237 -83 -431 -86 -156 -3 -173 -1
-188 15 -10 11 -14 27 -11 37 3 10 63 72 132 138 162 154 159 148 168 325 4
58 8 146 11 195 9 162 14 268 20 400 3 72 8 168 11 215 2 47 7 164 10 260 6
237 7 237 -114 120 -203 -196 -346 -308 -377 -297 -8 4 -15 11 -15 17 0 14 90
102 215 209 55 47 102 88 105 91 3 3 45 39 95 80 49 41 101 85 115 98 41 38
124 27 295 -40z m1898 -45 c5 -25 -6 -38 -86 -115 -50 -49 -96 -88 -102 -88
-5 0 -28 -17 -50 -38 -110 -103 -156 -123 -177 -77 -10 23 -6 29 58 92 156
153 287 253 329 253 17 0 24 -7 28 -27z m-2523 -58 c0 -8 -26 -32 -57 -54 -32
-22 -75 -56 -96 -75 -40 -38 -56 -44 -58 -23 -4 45 33 87 106 121 59 27 99 44
103 45 1 1 2 -6 2 -14z m2608 -115 c2 -20 -14 -41 -82 -107 -111 -106 -212
-193 -259 -222 -50 -31 -87 -23 -87 19 0 23 15 42 78 99 138 126 294 242 322
239 18 -2 26 -10 28 -28z m-2378 -136 c-33 -61 -314 -306 -369 -321 -26 -6
-41 9 -41 42 0 36 260 271 345 311 43 20 52 22 64 9 13 -12 13 -18 1 -41z
m2453 -34 c6 -22 -48 -82 -148 -165 -33 -28 -69 -58 -80 -68 -53 -49 -145
-107 -169 -107 -22 0 -26 4 -26 29 0 21 12 40 48 72 102 95 328 259 357 259 7
0 15 -9 18 -20z m-3210 -34 c20 -43 44 -134 52 -201 4 -27 8 -60 10 -73 2 -12
7 -62 10 -110 3 -48 8 -114 11 -147 2 -33 7 -256 10 -495 5 -417 4 -437 -15
-493 -52 -148 -80 -154 -73 -14 10 197 3 584 -13 665 -1 9 -6 55 -10 102 -3
47 -8 92 -10 100 -2 8 -7 51 -10 95 -3 44 -7 109 -10 145 -16 197 -21 414 -9
443 10 28 39 19 57 -17z m755 -134 c2 -15 -17 -41 -70 -93 -160 -157 -278
-246 -312 -233 -25 10 -19 53 12 82 85 82 340 274 356 269 6 -2 12 -13 14 -25z
m2508 -27 c8 -43 -8 -64 -76 -103 -25 -14 -78 -59 -119 -99 -126 -125 -202
-162 -209 -102 -4 35 42 90 128 150 39 28 92 73 118 101 54 58 98 88 129 88
17 0 24 -8 29 -35z m60 -190 c2 -19 -18 -43 -82 -104 -83 -79 -202 -171 -222
-171 -6 0 -22 -14 -36 -31 -31 -36 -60 -35 -64 2 -2 19 9 39 42 76 81 89 304
253 345 253 10 0 17 -10 17 -25z m-2586 -14 c0 -19 -24 -77 -39 -95 -33 -38
-283 -226 -302 -226 -29 0 -24 49 9 85 30 33 210 189 257 223 30 21 75 30 75
13z m2615 -210 c-5 -24 -34 -52 -143 -138 -75 -59 -139 -110 -142 -113 -3 -3
-22 -18 -42 -33 -31 -23 -41 -26 -58 -17 -43 23 -27 44 140 185 58 49 132 108
164 132 52 38 61 42 74 30 10 -10 12 -25 7 -46z m-2625 -26 c26 -31 -12 -74
-204 -233 -101 -84 -132 -99 -154 -78 -9 10 8 52 34 86 44 56 278 240 305 240
4 0 12 -7 19 -15z m2644 -177 c-2 -17 -12 -39 -22 -48 -149 -137 -206 -185
-267 -226 -67 -44 -89 -47 -93 -11 -5 37 27 79 91 118 28 17 84 62 122 99 74
70 108 95 140 102 29 6 33 2 29 -34z m-2634 -63 c-5 -14 -16 -38 -24 -54 -22
-43 -301 -261 -333 -261 -8 0 -13 11 -13 28 0 28 88 135 177 215 48 44 146 97
179 97 21 0 22 -3 14 -25z m2640 -150 c0 -32 -23 -68 -77 -123 -61 -62 -167
-142 -189 -142 -7 0 -22 -13 -34 -30 -23 -33 -66 -41 -76 -15 -12 30 37 88
171 202 124 106 205 148 205 108z m-2680 -86 c0 -24 -60 -93 -155 -178 -69
-62 -122 -97 -159 -107 -24 -6 -26 -4 -26 26 0 23 9 41 34 66 19 19 41 34 49
34 8 0 26 12 39 28 12 15 35 32 50 39 15 7 44 27 65 46 44 39 84 67 95 67 5 0
8 -10 8 -21z m2650 -166 c0 -30 -34 -76 -111 -150 -129 -124 -245 -206 -259
-183 -9 15 3 63 25 96 23 36 307 252 333 253 6 1 12 -7 12 -16z m-132 -344 c2
-27 -59 -117 -86 -125 -32 -10 -77 -37 -143 -86 -37 -26 -69 -48 -73 -48 -3 0
-6 13 -6 29 0 24 16 44 88 110 160 146 214 176 220 120z m-258 -405 c0 -39
-44 -94 -94 -118 -28 -14 -53 -23 -54 -21 -16 16 52 105 103 137 37 22 45 23
45 2z m-3225 -73 c-7 -29 -40 -61 -170 -163 -132 -104 -203 -132 -234 -94 -12
14 46 81 119 138 57 45 180 117 226 133 55 19 66 16 59 -14z m169 -57 c29 -11
17 -31 -71 -114 -150 -139 -273 -205 -273 -145 0 32 283 265 322 265 3 0 13
-3 22 -6z m213 -80 c8 -22 -43 -71 -213 -202 -69 -53 -87 -62 -122 -62 -74 0
-50 42 83 145 154 120 236 159 252 119z m206 -58 c11 -28 -39 -83 -169 -186
-99 -79 -152 -104 -189 -90 -26 10 -26 10 -9 37 22 37 137 136 232 200 76 52
125 66 135 39z m213 -71 c9 -23 -223 -238 -296 -273 -50 -25 -90 -19 -90 13 0
23 138 145 265 234 61 43 111 53 121 26z m182 -86 c5 -25 -220 -237 -289 -274
-22 -12 -29 -12 -48 1 -42 30 -19 65 99 151 30 22 64 51 75 63 41 47 98 81
130 78 18 -2 31 -9 33 -19z m207 -69 c7 -11 -26 -45 -125 -132 -132 -115 -152
-128 -192 -126 -21 1 -39 7 -42 14 -18 48 241 254 320 254 18 0 36 -4 39 -10z
m196 -60 c18 -10 18 -12 2 -36 -17 -27 -179 -161 -249 -208 -51 -33 -109 -45
-117 -23 -9 24 30 67 136 152 91 72 175 125 199 125 5 0 18 -5 29 -10z m189
-79 c0 -45 -137 -169 -251 -227 -106 -53 -105 -20 2 72 44 38 101 89 127 113
47 43 100 73 114 65 5 -3 8 -13 8 -23z m220 -51 c12 -8 12 -12 0 -36 -32 -61
-223 -214 -287 -230 -55 -14 -79 25 -37 59 16 12 73 59 127 104 126 104 164
124 197 103z m210 -99 c-8 -15 -98 -101 -200 -190 -70 -61 -140 -82 -154 -46
-11 28 237 238 309 262 37 13 59 -1 45 -26z m230 -42 c0 -37 -167 -211 -257
-265 -21 -13 -48 -21 -69 -19 -67 4 -69 35 -7 99 43 45 212 173 261 197 38 20
72 14 72 -12z"/>
</g>
</svg>
